<svg class="search__svg_voice" viewBox="0 0 32 32" width="37" height="37" fill="currentColor" xmlns="http://www.w3.org/2000/svg">
                        <path d="M27.25 14.05ZM14.302 24.92c-5.19-.803-9.18-5.234-9.3-10.62h2a9 9 0 0 0 17.994 0h2c-.12 5.386-4.11 9.817-9.3 10.62l-.186.03-.482 3.85H14.97l-.482-3.85-.186-.03Z" fill="#acacad"></path>
                        <path fill-rule="evenodd" clip-rule="evenodd" d="M10 9.05a6 6 0 0 1 12 0v5a6 6 0 0 1-12 0v-5Zm10 5v-5a4 4 0 0 0-8 0v5a4 4 0 1 0 8 0Z" fill="#acacad"></path>
                    </svg>